<mxfile host="Electron" modified="2024-05-21T06:55:20.922Z" agent="Mozilla/5.0 (Windows NT 10.0; Win64; x64) AppleWebKit/537.36 (KHTML, like Gecko) draw.io/24.4.0 Chrome/120.0.6099.109 Electron/28.1.0 Safari/537.36" etag="_reVxNsMert1CvzssamX" version="24.4.0" type="device">
  <diagram name="페이지-1" id="RfYx_nZ79lV7ZhSDQlSA">
    <mxGraphModel dx="574" dy="334" grid="1" gridSize="10" guides="1" tooltips="1" connect="1" arrows="1" fold="1" page="1" pageScale="1" pageWidth="1169" pageHeight="827" math="0" shadow="0">
      <root>
        <mxCell id="0" />
        <mxCell id="1" parent="0" />
        <mxCell id="B15K5G0ttIYvfT7s34gw-1" value="PIPING_CNTR" style="rounded=0;whiteSpace=wrap;html=1;" vertex="1" parent="1">
          <mxGeometry x="280" y="170" width="440" height="60" as="geometry" />
        </mxCell>
        <mxCell id="B15K5G0ttIYvfT7s34gw-2" value="PIPING1" style="rounded=0;whiteSpace=wrap;html=1;" vertex="1" parent="1">
          <mxGeometry x="280" y="270" width="80" height="60" as="geometry" />
        </mxCell>
        <mxCell id="B15K5G0ttIYvfT7s34gw-3" value="PIPING2" style="rounded=0;whiteSpace=wrap;html=1;" vertex="1" parent="1">
          <mxGeometry x="400" y="270" width="80" height="60" as="geometry" />
        </mxCell>
        <mxCell id="B15K5G0ttIYvfT7s34gw-4" value="PIPING3" style="rounded=0;whiteSpace=wrap;html=1;" vertex="1" parent="1">
          <mxGeometry x="520" y="270" width="80" height="60" as="geometry" />
        </mxCell>
        <mxCell id="B15K5G0ttIYvfT7s34gw-5" value="PIPING4" style="rounded=0;whiteSpace=wrap;html=1;" vertex="1" parent="1">
          <mxGeometry x="640" y="270" width="80" height="60" as="geometry" />
        </mxCell>
        <mxCell id="B15K5G0ttIYvfT7s34gw-7" value="x1" style="rounded=0;orthogonalLoop=1;jettySize=auto;html=1;exitX=0.25;exitY=0;exitDx=0;exitDy=0;entryX=0.046;entryY=1.005;entryDx=0;entryDy=0;entryPerimeter=0;startArrow=classic;startFill=1;endArrow=none;endFill=0;" edge="1" parent="1" source="B15K5G0ttIYvfT7s34gw-2" target="B15K5G0ttIYvfT7s34gw-1">
          <mxGeometry relative="1" as="geometry">
            <mxPoint x="300" y="240" as="targetPoint" />
          </mxGeometry>
        </mxCell>
        <mxCell id="B15K5G0ttIYvfT7s34gw-8" value="y1" style="rounded=0;orthogonalLoop=1;jettySize=auto;html=1;exitX=0.75;exitY=0;exitDx=0;exitDy=0;startArrow=none;startFill=0;endArrow=classic;endFill=1;strokeColor=default;" edge="1" parent="1" source="B15K5G0ttIYvfT7s34gw-2">
          <mxGeometry relative="1" as="geometry">
            <mxPoint x="340" y="230" as="targetPoint" />
          </mxGeometry>
        </mxCell>
        <mxCell id="B15K5G0ttIYvfT7s34gw-13" value="y2" style="rounded=0;orthogonalLoop=1;jettySize=auto;html=1;exitX=0.75;exitY=0;exitDx=0;exitDy=0;startArrow=none;startFill=0;endArrow=classic;endFill=1;strokeColor=default;" edge="1" parent="1">
          <mxGeometry relative="1" as="geometry">
            <mxPoint x="459.92" y="270" as="sourcePoint" />
            <mxPoint x="459.92" y="230" as="targetPoint" />
          </mxGeometry>
        </mxCell>
        <mxCell id="B15K5G0ttIYvfT7s34gw-14" value="x2" style="rounded=0;orthogonalLoop=1;jettySize=auto;html=1;exitX=0.25;exitY=0;exitDx=0;exitDy=0;entryX=0.033;entryY=1.008;entryDx=0;entryDy=0;entryPerimeter=0;startArrow=classic;startFill=1;endArrow=none;endFill=0;" edge="1" parent="1">
          <mxGeometry relative="1" as="geometry">
            <mxPoint x="419.92" y="270" as="sourcePoint" />
            <mxPoint x="419.92" y="230" as="targetPoint" />
          </mxGeometry>
        </mxCell>
        <mxCell id="B15K5G0ttIYvfT7s34gw-15" value="y3" style="rounded=0;orthogonalLoop=1;jettySize=auto;html=1;exitX=0.75;exitY=0;exitDx=0;exitDy=0;startArrow=none;startFill=0;endArrow=classic;endFill=1;strokeColor=default;" edge="1" parent="1">
          <mxGeometry relative="1" as="geometry">
            <mxPoint x="579.86" y="270" as="sourcePoint" />
            <mxPoint x="579.86" y="230" as="targetPoint" />
          </mxGeometry>
        </mxCell>
        <mxCell id="B15K5G0ttIYvfT7s34gw-16" value="x3" style="rounded=0;orthogonalLoop=1;jettySize=auto;html=1;exitX=0.25;exitY=0;exitDx=0;exitDy=0;entryX=0.033;entryY=1.008;entryDx=0;entryDy=0;entryPerimeter=0;startArrow=classic;startFill=1;endArrow=none;endFill=0;" edge="1" parent="1">
          <mxGeometry relative="1" as="geometry">
            <mxPoint x="539.86" y="270" as="sourcePoint" />
            <mxPoint x="539.86" y="230" as="targetPoint" />
          </mxGeometry>
        </mxCell>
        <mxCell id="B15K5G0ttIYvfT7s34gw-17" value="y4" style="rounded=0;orthogonalLoop=1;jettySize=auto;html=1;exitX=0.75;exitY=0;exitDx=0;exitDy=0;startArrow=none;startFill=0;endArrow=classic;endFill=1;strokeColor=default;" edge="1" parent="1">
          <mxGeometry relative="1" as="geometry">
            <mxPoint x="699.86" y="270" as="sourcePoint" />
            <mxPoint x="699.86" y="230" as="targetPoint" />
          </mxGeometry>
        </mxCell>
        <mxCell id="B15K5G0ttIYvfT7s34gw-18" value="x4" style="rounded=0;orthogonalLoop=1;jettySize=auto;html=1;exitX=0.25;exitY=0;exitDx=0;exitDy=0;entryX=0.033;entryY=1.008;entryDx=0;entryDy=0;entryPerimeter=0;startArrow=classic;startFill=1;endArrow=none;endFill=0;" edge="1" parent="1">
          <mxGeometry relative="1" as="geometry">
            <mxPoint x="659.86" y="270" as="sourcePoint" />
            <mxPoint x="659.86" y="230" as="targetPoint" />
          </mxGeometry>
        </mxCell>
        <mxCell id="B15K5G0ttIYvfT7s34gw-20" value="in" style="rounded=0;orthogonalLoop=1;jettySize=auto;html=1;exitX=0;exitY=0.5;exitDx=0;exitDy=0;startArrow=classic;startFill=1;endArrow=none;endFill=0;" edge="1" parent="1" source="B15K5G0ttIYvfT7s34gw-1">
          <mxGeometry relative="1" as="geometry">
            <mxPoint x="260" y="220" as="sourcePoint" />
            <mxPoint x="240" y="200" as="targetPoint" />
          </mxGeometry>
        </mxCell>
        <mxCell id="B15K5G0ttIYvfT7s34gw-21" value="out" style="rounded=0;orthogonalLoop=1;jettySize=auto;html=1;exitX=0;exitY=0.5;exitDx=0;exitDy=0;startArrow=classic;startFill=1;endArrow=none;endFill=0;" edge="1" parent="1">
          <mxGeometry relative="1" as="geometry">
            <mxPoint x="760" y="199.8" as="sourcePoint" />
            <mxPoint x="720" y="199.8" as="targetPoint" />
          </mxGeometry>
        </mxCell>
      </root>
    </mxGraphModel>
  </diagram>
</mxfile>
